<svg xmlns="http://www.w3.org/2000/svg" width="174.527" height="56.951" viewBox="0 0 174.527 56.951"><g transform="translate(0 0)"><g transform="translate(0 49.602)"><path d="M8.492,136.6h-.78l-.905-2.148H1.662L.757,136.6H0l2.458-5.848c.39-.982.913-1.5,1.787-1.5s1.361.519,1.783,1.5Zm-3.16-5.653c-.238-.573-.538-.943-1.088-.943s-.858.37-1.1.943l-1.17,2.772H6.5Z" transform="translate(165.116 -129.25)" fill="#fff"/><path d="M47.988,133.153v3.61H43.061c-2.1,0-2.941-1.209-2.941-3.633s.831-3.61,2.941-3.61h4.864v.807H43.061c-1.7,0-2.22.92-2.22,2.8s.531,2.815,2.22,2.815h4.217v-2.807Z" transform="translate(74.545 -129.415)" fill="#fff"/><path d="M81.17,129.52h5.352a2.027,2.027,0,0,1,2.235,2.171,1.87,1.87,0,0,1-1.385,1.98,1.692,1.692,0,0,1,1.221,1.746v1.345h-.729v-1.357a1.279,1.279,0,0,0-1.4-1.376H81.884v2.729H81.17Zm5.395,3.781a1.526,1.526,0,0,0,0-3.049H81.884V133.3Z" transform="translate(5.058 -129.415)" fill="#fff"/><path d="M163.7,136.763H163V129.52h.6c1.5,0,1.915.624,3.706,3.4,1.689,2.635,1.931,3.025,2.894,3.025h.1V129.52h.7v7.243h-.6c-1.432,0-1.853-.593-3.671-3.345s-1.989-3.072-2.93-3.072h-.1Z" transform="translate(-134.564 -129.415)" fill="#fff"/><path d="M207.091,130.3c-1.56,0-2.173.815-2.22,2.468h6.967v.741h-6.967c.055,1.653.667,2.468,2.22,2.468h4.9v.78h-4.9c-2.1,0-2.941-1.2-2.941-3.622s.831-3.622,2.941-3.622h4.9v.78Z" transform="translate(-146.359 -129.409)" fill="#fff"/><path d="M207.091,130.3c-1.56,0-2.173.815-2.22,2.468h6.967v.741h-6.967c.055,1.653.667,2.468,2.22,2.468h4.9v.78h-4.9c-2.1,0-2.941-1.2-2.941-3.622s.831-3.622,2.941-3.622h4.9v.78Z" transform="translate(-204.15 -129.409)" fill="#fff"/><rect width="0.71" height="7.243" transform="translate(143.07 0.105)" fill="#fff"/></g><path d="M.7,54.48H18.675c5.071,0,8.235,2.45,8.235,6.862a5.648,5.648,0,0,1-4.236,5.851,5,5,0,0,1,3.78,4.993v4.342H21.975V72.073c0-1.225-.636-2.8-3.39-2.8H5.03v7.26H.7Zm18.311,10.7a3.321,3.321,0,1,0,0-6.635H5.03v6.631Z" transform="translate(-0.7 -33.948)" fill="#fff"/><path d="M100.674,64.994h0c0,8.539-4.658,11.34-14.527,11.34s-14.527-2.8-14.527-11.34S76.282,53.65,86.147,53.65s14.527,2.8,14.527,11.344m-4.416,0c0-6.156-3.331-6.994-10.111-6.994s-10.088.858-10.088,6.994,3.331,6.99,10.107,6.99S96.258,71.145,96.258,64.994Z" transform="translate(-43.974 -33.442)" fill="#fff"/><path d="M171.876,54.48l-8.231,17.687c-1.272,2.731-2.933,4.681-6.475,4.681s-5.208-1.95-6.479-4.681L142.46,54.48h4.751l7.8,16.5a2.3,2.3,0,0,0,4.3,0l7.8-16.5Z" transform="translate(-87.2 -33.948)" fill="#fff"/><path d="M224.686,58.873c-4.057,0-5.266,1.642-5.567,4.576h21.607v4.119H219.108c.3,2.933,1.51,4.545,5.567,4.545h16.4V76.54H224.686c-7.412,0-9.986-3.772-9.986-11.02s2.571-11.02,9.986-11.02h16.4v4.373Z" transform="translate(-131.278 -33.96)" fill="#fff"/><path d="M292.026,59.364V76.528H287.79V54.48H292a3.382,3.382,0,0,1,2.937,1.709l8.582,11.242L312.1,56.189a3.382,3.382,0,0,1,2.937-1.709h4.205V76.528h-4.213V59.364l-9.834,12.611H301.86Z" transform="translate(-175.879 -33.948)" fill="#fff"/><path d="M387.539,59.248a2.281,2.281,0,0,0-4.3,0l-8.11,16.774H370.5l8.473-17.69c1.3-2.731,2.875-4.681,6.417-4.681s5.071,1.95,6.417,4.681l8.5,17.69h-4.65Z" transform="translate(-226.347 -33.441)" fill="#fff"/><path d="M228.937,0H226.62c45.318.47,78.588,11.356,82.544,22.622,3.045,8.665-6.207,14.605-16.039,18.713,12.951-4.372,20.759-10.02,20.759-16.182C313.883,11.259,277.779,0,228.937,0" transform="translate(-139.357 0)" fill="#fff"/></g></svg>